#!OML:ASF I:\Actors\actors\Patient Classification 2\Patient 1\Session 1\actor1.ASF
:FULLY-SPECIFIED
:DEGREES
263
root -0.95711 18.267 5.7378 3.14144 1.33886 -4.10261
lowerback 11.4231 2.96636 4.04269
upperback 1.25767 4.44585 0.119716
thorax -4.77656 2.11615 -2.81605
lowerneck 3.44525 -15.3362 -12.5364
upperneck -5.84218 -20.6971 11.3272
head 0.178163 -10.4093 5.00478
rclavicle 8.4732e-015 -8.24956e-015
rhumerus 11.0522 32.5988 -65.9831
rradius 133.206
rwrist -43.9021
rhand 12.4226 -10.123
rfingers 7.12502
rthumb 37.4203 -36.0776
lclavicle 8.4732e-015 -8.24956e-015
lhumerus -46.8949 -25.0442 98.4049
lradius 92.7769
lwrist 14.1519
lhand -3.53984 -20.8163
lfingers 7.12502
lthumb 22.1958 7.92932
rfemur 0 0 0
rtibia 0
rfoot 0 0
rtoes 0
lfemur 12.7315 -8.08118 -12.4383
ltibia -17.2865
lfoot -1.96368 18.589
ltoes -9.96621
264
root -0.95863 18.2667 5.73973 3.1515 1.34045 -4.16353
lowerback 11.4807 3.00021 4.04592
upperback 1.24262 4.49541 0.143265
thorax -4.82241 2.13905 -2.80479
lowerneck 3.39224 -15.2589 -12.5313
upperneck -6.13126 -20.5699 11.5431
head 0.111023 -10.3486 5.08224
rclavicle -1.67725e-014 6.16232e-015
rhumerus 10.0968 33.0173 -66.3572
rradius 133.48
rwrist -43.5977
rhand 12.5635 -10.1077
rfingers 7.12502
rthumb 37.5535 -36.027
lclavicle -1.67725e-014 6.16232e-015
lhumerus -47.008 -25.0997 98.4336
lradius 92.8608
lwrist 14.5527
lhand -3.50914 -20.7087
lfingers 7.12502
lthumb 22.2253 8.03349
rfemur 0 0 0
rtibia 0
rfoot 0 0
rtoes 0
lfemur 12.7454 -8.10022 -12.3609
ltibia -17.3192
lfoot -1.98521 18.6375
ltoes -10.1757
265
root -0.959603 18.2664 5.74181 3.1838 1.32563 -4.2039
lowerback 11.49 3.03591 4.03914
upperback 1.23088 4.54319 0.153668
thorax -4.83782 2.16217 -2.79809
lowerneck 3.33416 -15.1886 -12.4407
upperneck -6.44193 -20.4477 11.6598
head 0.0189861 -10.2894 5.12346
rclavicle 3.13334e-014 -1.44119e-014
rhumerus 9.26577 33.3098 -66.6976
rradius 133.7
rwrist -43.3408
rhand 12.9826 -9.99872
rfingers 7.12502
rthumb 37.9494 -35.8117
lclavicle 3.13334e-014 -1.44119e-014
lhumerus -47.1132 -25.1334 98.4342
lradius 92.9396
lwrist 14.8571
lhand -3.41169 -20.5608
lfingers 7.12502
lthumb 22.3188 8.1702
rfemur 0 0 0
rtibia 0
rfoot 0 0
rtoes 0
lfemur 12.7372 -8.13577 -12.3075
ltibia -17.3417
lfoot -2.03349 18.704
ltoes -10.3108
266
root -0.961053 18.2667 5.7434 3.22569 1.33187 -4.19596
lowerback 11.4715 3.06616 3.98484
upperback 1.21735 4.57643 0.160729
thorax -4.84419 2.17931 -2.76456
lowerneck 3.29183 -15.1685 -12.2998
upperneck -6.76746 -20.3945 11.6425
head -0.0925389 -10.2622 5.11996
rclavicle 6.83322e-015 8.34896e-015
rhumerus 8.53936 33.4853 -66.9639
rradius 133.881
rwrist -43.0455
rhand 13.3829 -9.74504
rfingers 7.12502
rthumb 38.3274 -35.4544
lclavicle 6.83322e-015 8.34896e-015
lhumerus -47.1738 -25.1508 98.4528
lradius 92.9582
lwrist 14.9621
lhand -3.32739 -20.3348
lfingers 7.12502
lthumb 22.3997 8.38646
rfemur 0 0 0
rtibia 0
rfoot 0 0
rtoes 0
lfemur 12.6877 -8.09686 -12.2991
ltibia -17.3279
lfoot -2.0199 18.656
ltoes -10.5599
267
root -0.962332 18.2681 5.7442 3.27479 1.36277 -4.15593
lowerback 11.4439 3.08016 3.90198
upperback 1.19563 4.58418 0.163048
thorax -4.85781 2.18412 -2.71619
lowerneck 3.32204 -15.1461 -12.1839
upperneck -7.15051 -20.3448 11.6214
head -0.229992 -10.2377 5.12773
rclavicle 3.08613e-014 -1.69961e-014
rhumerus 7.87657 33.6184 -67.1722
rradius 134.076
rwrist -42.6244
rhand 13.5566 -9.61335
rfingers 7.12502
rthumb 38.4913 -35.2772
lclavicle 3.08613e-014 -1.69961e-014
lhumerus -47.2402 -25.1318 98.4797
lradius 92.9453
lwrist 14.9375
lhand -3.34836 -20.1861
lfingers 7.12502
lthumb 22.3796 8.53755
rfemur 0 0 0
rtibia 0
rfoot 0 0
rtoes 0
lfemur 12.5958 -8.04814 -12.3244
ltibia -17.2741
lfoot -1.99656 18.5724
ltoes -10.8713
